<svg width="43" height="43" viewBox="0 0 43 43" fill="none" xmlns="http://www.w3.org/2000/svg">
<path d="M36.7233 34.2054L30.6944 28.1942C32.6396 25.7161 33.695 22.6558 33.6911 19.5054C33.6911 16.6998 32.8591 13.9571 31.3004 11.6243C29.7416 9.29142 27.5261 7.47319 24.934 6.3995C22.3419 5.32582 19.4896 5.04489 16.7378 5.59225C13.9861 6.13961 11.4584 7.49068 9.4745 9.47459C7.49059 11.4585 6.13952 13.9862 5.59216 16.7379C5.0448 19.4897 5.32573 22.342 6.39941 24.9341C7.4731 27.5262 9.29132 29.7417 11.6242 31.3005C13.957 32.8592 16.6997 33.6912 19.5054 33.6912C22.6558 33.6951 25.716 32.6397 28.1941 30.6945L34.2053 36.7234C34.3702 36.8896 34.5663 37.0215 34.7824 37.1116C34.9985 37.2016 35.2302 37.2479 35.4643 37.2479C35.6984 37.2479 35.9302 37.2016 36.1463 37.1116C36.3624 37.0215 36.5585 36.8896 36.7233 36.7234C36.8895 36.5586 37.0214 36.3624 37.1115 36.1464C37.2015 35.9303 37.2478 35.6985 37.2478 35.4644C37.2478 35.2303 37.2015 34.9986 37.1115 34.7825C37.0214 34.5664 36.8895 34.3703 36.7233 34.2054ZM8.86603 19.5054C8.86603 17.4012 9.49001 15.3442 10.6591 13.5946C11.8281 11.8449 13.4898 10.4813 15.4339 9.67599C17.3779 8.87072 19.5172 8.66003 21.581 9.07055C23.6448 9.48107 25.5406 10.4944 27.0285 11.9823C28.5164 13.4702 29.5297 15.366 29.9402 17.4298C30.3508 19.4936 30.1401 21.6329 29.3348 23.5769C28.5295 25.521 27.1659 27.1826 25.4162 28.3517C23.6666 29.5208 21.6096 30.1448 19.5054 30.1448C16.6836 30.1448 13.9775 29.0238 11.9822 27.0286C9.98695 25.0333 8.86603 22.3272 8.86603 19.5054Z" fill="white" fill-opacity="0.24"/>
</svg>
