<svg width="38" height="36" viewBox="0 0 38 36" fill="none" xmlns="http://www.w3.org/2000/svg">
<path d="M35.2472 21.2824L37.408 9.39774C37.4685 9.06471 37.4551 8.72246 37.3688 8.39517C37.2825 8.06788 37.1254 7.76354 36.9085 7.50367C36.6916 7.24381 36.4203 7.03475 36.1137 6.89129C35.8071 6.74783 35.4728 6.67346 35.1343 6.67345H7.17133L6.31587 1.96838C6.21927 1.43582 5.9387 0.954092 5.52315 0.607289C5.1076 0.260485 4.58345 0.07063 4.0422 0.070862H1.06265C0.799986 0.070862 0.548077 0.175206 0.362343 0.36094C0.17661 0.546674 0.0722656 0.798583 0.0722656 1.06125C0.0722656 1.32392 0.17661 1.57583 0.362343 1.76156C0.548077 1.94729 0.799986 2.05164 1.06265 2.05164H4.0422C4.11952 2.05158 4.19441 2.07869 4.25378 2.12823C4.31315 2.17778 4.35323 2.2466 4.36701 2.32269L8.77459 26.5645C8.82384 26.836 8.92141 27.0964 9.06265 27.3335C8.39169 27.8327 7.88115 28.5171 7.59375 29.3024C7.30635 30.0878 7.2546 30.94 7.44485 31.7544C7.63511 32.5688 8.05908 33.3099 8.6647 33.8866C9.27032 34.4634 10.0312 34.8507 10.8539 35.001C11.6766 35.1513 12.5253 35.058 13.2957 34.7326C14.0661 34.4072 14.7247 33.8639 15.1906 33.1694C15.6565 32.4748 15.9094 31.6594 15.9182 30.8231C15.9271 29.9868 15.6914 29.1662 15.2403 28.462H27.821C27.3082 29.2648 27.0773 30.2156 27.1646 31.1642C27.2519 32.1128 27.6525 33.0054 28.3032 33.7012C28.9539 34.397 29.8177 34.8564 30.7583 35.0069C31.699 35.1575 32.663 34.9907 33.4984 34.5328C34.3338 34.0749 34.993 33.3519 35.372 32.4779C35.7511 31.604 35.8284 30.6287 35.5919 29.7059C35.3553 28.7831 34.8184 27.9652 34.0656 27.3814C33.3129 26.7975 32.3872 26.4808 31.4345 26.4812H11.0483C10.9709 26.4813 10.896 26.4542 10.8367 26.4046C10.7773 26.3551 10.7372 26.2862 10.7234 26.2102L10.1725 23.1799H32.9735C33.5147 23.1801 34.0389 22.9903 34.4544 22.6435C34.87 22.2967 35.1505 21.815 35.2472 21.2824ZM13.9377 30.7729C13.9377 31.2299 13.8022 31.6767 13.5482 32.0568C13.2943 32.4368 12.9334 32.733 12.5111 32.9079C12.0889 33.0828 11.6242 33.1286 11.176 33.0394C10.7277 32.9502 10.3159 32.7301 9.99273 32.4069C9.66955 32.0838 9.44946 31.672 9.36029 31.2237C9.27112 30.7754 9.31689 30.3108 9.49179 29.8885C9.6667 29.4663 9.96289 29.1054 10.3429 28.8514C10.7229 28.5975 11.1697 28.462 11.6268 28.462C12.2395 28.4627 12.8269 28.7064 13.2601 29.1396C13.6933 29.5728 13.937 30.1602 13.9377 30.7729ZM33.7455 30.7729C33.7455 31.2299 33.6099 31.6767 33.356 32.0568C33.1021 32.4368 32.7412 32.733 32.3189 32.9079C31.8966 33.0828 31.432 33.1286 30.9837 33.0394C30.5354 32.9502 30.1237 32.7301 29.8005 32.4069C29.4773 32.0838 29.2572 31.672 29.168 31.2237C29.0789 30.7754 29.1246 30.3108 29.2995 29.8885C29.4745 29.4663 29.7706 29.1054 30.1507 28.8514C30.5307 28.5975 30.9775 28.462 31.4345 28.462C32.0472 28.4627 32.6346 28.7064 33.0678 29.1396C33.5011 29.5728 33.7448 30.1602 33.7455 30.7729ZM7.53145 8.65422H35.1343C35.1827 8.65423 35.2304 8.66486 35.2742 8.68535C35.318 8.70585 35.3568 8.73572 35.3878 8.77284C35.4188 8.80997 35.4412 8.85345 35.4535 8.9002C35.4659 8.94696 35.4678 8.99585 35.4591 9.04343L33.2983 20.9281C33.2845 21.0042 33.2444 21.073 33.1851 21.1225C33.1257 21.1721 33.0508 21.1992 32.9735 21.1991H9.81237L7.53145 8.65422Z" fill="white"/>
</svg>
