<svg width="29" height="27" viewBox="0 0 29 27" fill="none" xmlns="http://www.w3.org/2000/svg">
<path d="M20.363 3.23985e-05H20.3788C22.6445 3.23985e-05 24.6947 1.04844 26.1741 2.74161L26.1745 2.74216C27.6624 4.43824 28.5837 6.77678 28.5881 9.35984V9.36082C28.5882 9.38208 28.5882 9.40727 28.5882 9.43245C28.5882 12.5441 27.7493 15.4331 26.3143 17.8235L26.3435 17.7719C25.032 19.9177 23.4229 21.7119 21.5671 23.1192L21.5024 23.1653C19.5034 24.7207 17.1947 25.9997 14.7268 26.8671L14.545 26.9221L14.291 27L14.0369 26.9221C11.388 25.9971 9.08035 24.7158 6.99418 23.0936L7.08206 23.1581C5.16157 21.7047 3.55246 19.9105 2.27927 17.8309L2.24098 17.7648C0.837498 15.4269 0 12.5399 0 9.4307C0 9.40305 5.70639e-05 9.37547 0.000199724 9.34788V9.35209C0.0210851 4.2051 3.6984 0.041817 8.23158 0.041817C10.626 0.041817 12.7816 1.20336 14.2858 3.0575L14.2909 3.06399C15.7925 1.18611 17.9477 0.00923864 20.345 0H20.3464L20.363 3.23985e-05ZM14.291 24.7471C16.6447 23.8718 18.6896 22.7144 20.5508 21.2733L20.4659 21.3354C24.5868 18.1285 26.6764 14.0962 26.6764 9.35657C26.6753 7.37159 25.9689 5.57424 24.8266 4.27039L24.8268 4.27065C23.6903 2.97004 22.1158 2.16495 20.3758 2.16495H20.3516C18.1575 2.17254 16.2277 3.45136 15.1021 5.3869L15.0875 5.41371L14.291 6.78479L13.492 5.41948C12.341 3.4817 10.4155 2.22434 8.23158 2.22434C4.75394 2.22434 1.93173 5.41248 1.90571 9.35663V9.35945C1.90571 14.0975 3.99533 18.1299 8.11617 21.3382C9.89248 22.7163 11.9375 23.8727 14.1179 24.6908L14.2911 24.7471L14.291 24.7471ZM20.9549 16.5308L19.644 14.9591C20.9549 13.5387 21.7825 11.5539 21.8237 9.34914L21.8238 9.34062V9.3377C21.8238 8.4211 21.1698 7.67799 20.363 7.67799C20.3603 7.67799 20.3577 7.67799 20.355 7.67805H20.3554L20.3452 5.5132C20.3505 5.51313 20.3568 5.5131 20.363 5.5131C22.2222 5.5131 23.7293 7.22542 23.7293 9.33767C23.7293 9.3448 23.7293 9.35193 23.7293 9.35906V9.35793V9.3709C23.679 12.1911 22.6252 14.7209 20.9585 16.527L20.955 16.5309L20.9549 16.5308Z" fill="white"/>
</svg>
